<svg xmlns="http://www.w3.org/2000/svg" viewBox="0 0 64 64" fill="none">
  <defs>
    <linearGradient id="g" x1="8" y1="8" x2="56" y2="56" gradientUnits="userSpaceOnUse">
      <stop stop-color="#6EE7B7"/>
      <stop offset="1" stop-color="#38BDF8"/>
    </linearGradient>
  </defs>
  <rect x="6" y="6" width="52" height="52" rx="14" fill="#0F172A"/>
  <rect x="10" y="10" width="44" height="44" rx="11" fill="#0B1221" stroke="url(#g)" stroke-width="2"/>
  <path d="M22 26c0-2.2 1.8-4 4-4h8c2.2 0 4 1.8 4 4v1.4l4.8-3.2c1.3-.9 3.2 0 3.2 1.6v12.4c0 1.6-1.9 2.5-3.2 1.6L38 37.6V38c0 2.2-1.8 4-4 4h-8c-2.2 0-4-1.8-4-4V26Z" fill="url(#g)"/>
  <path d="M24 34.5h7m-7-5h5" stroke="#E0F2FE" stroke-width="3" stroke-linecap="round"/>
</svg>
